<svg
  xmlns:svg="http://www.w3.org/2000/svg"
  xmlns="http://www.w3.org/2000/svg"
  width="200"
  height="100"
  viewBox="-200 0 200 100"
>
  <path style="fill:#ff0000;stroke:none" d=" M-125.810593 5.087934 L-124.792358 5.107698 L-123.773918 5.130617 L-122.755356 5.155451 L-121.736725 5.181305 L-120.717690 5.214174 L-119.698303 5.252869 L-118.678802 5.293583 L-117.659157 5.336906 L-116.639328 5.384497 L-115.619102 5.441044 L-114.598831 5.498699 L-113.578384 5.560326 L-112.557907 5.623438 L-111.537018 5.700087 L-110.516144 5.776844 L-109.495155 5.857555 L-108.474174 5.938457 L-107.452972 6.035210 L-106.431755 6.134506 L-105.410522 6.237070 L-104.389305 6.340797 L-103.368118 6.455969 L-102.346977 6.577637 L-101.325935 6.704048 L-100.304993 6.834734 L-99.284180 6.970791 L-98.263535 7.114380 L-97.243111 7.263126 L-96.223160 7.423656 L-95.203323 7.586082 L-94.183853 7.756058 L-93.164520 7.927704 L-92.146286 8.117584 L-91.128090 8.307713 L-90.111084 8.512154 L-89.094170 8.717442 L-88.078239 8.933594 L-87.062531 9.151947 L-86.048515 9.386192 L-85.035149 9.626408 L-84.023315 9.878159 L-83.012444 10.137108 L-82.002838 10.404633 L-80.994469 10.680504 L-79.987320 10.963757 L-78.981941 11.258152 L-77.978058 11.560333 L-76.977760 11.881786 L-75.978371 12.207130 L-74.982742 12.549847 L-73.987587 12.894260 L-72.997375 13.259251 L-72.007362 13.624817 L-71.023163 14.012234 L-70.039528 14.401588 L-69.061951 14.811348 L-68.085846 15.225876 L-67.115860 15.658962 L-66.148529 16.099899 L-65.187210 16.557171 L-64.230042 17.025547 L-63.278755 17.508163 L-62.333687 18.005699 L-61.393570 18.513931 L-60.461472 19.039459 L-59.533386 19.572750 L-58.615784 20.126396 L-57.701004 20.684940 L-56.799896 21.267357 L-55.899979 21.851612 L-55.017212 22.462555 L-54.135086 23.074379 L-53.270355 23.710331 L-52.407700 24.349110 L-51.561356 25.007957 L-50.719345 25.672188 L-49.892044 26.352497 L-49.071579 27.040249 L-48.263870 27.740288 L-47.465485 28.449291 L-46.677582 29.167088 L-45.901413 29.894691 L-45.134476 30.628761 L-44.383713 31.373974 L-43.638336 32.122272 L-42.908844 32.879158 L-42.182190 33.637360 L-41.472504 34.402294 L-40.763412 35.167545 L-40.074051 35.936829 L-39.384842 36.706257 L-38.710373 37.474972 L-38.037537 38.243675 L-37.374939 39.008175 L-36.715073 39.771542 L-36.062790 40.526676 L-35.414154 41.277882 L-34.768814 42.020435 L-34.126099 42.756329 L-33.484573 43.480511 L-32.844650 44.190495 L-32.204330 44.891354 L-31.563126 45.574154 L-30.920792 46.248196 L-30.273483 46.890652 L-29.626038 47.529385 L-28.969955 48.130489 L-28.315521 48.733387 L-27.646362 49.283779 L-26.979431 49.836727 L-26.296066 50.338383 L-25.613007 50.836666 L-24.914642 51.291340 L-24.213928 51.736576 L-23.495682 52.137318 L-22.769760 52.517796 L-22.031265 52.869015 L-21.282471 53.196789 L-20.521454 53.498470 L-19.743118 53.763439 L-18.957901 54.015079 L-18.155182 54.230724 L-17.347519 54.437466 L-16.515945 54.592793 L-15.683151 54.747723 L-14.829926 54.855938 L-13.977219 54.968021 L-13.105530 55.032665 L-12.233627 55.099232 L-11.348175 55.126751 L-9.513199 55.246166 L-8.575241 55.530689 L-7.710800 55.992741 L-6.953110 56.614552 L-6.331314 57.372234 L-5.869247 58.236675 L-5.584717 59.174633 L-5.488647 60.150089 L-5.584717 61.125546 L-5.869247 62.063511 L-6.331299 62.927944 L-6.953110 63.685627 L-7.710800 64.307434 L-8.575226 64.769485 L-9.513199 65.054016 L-11.628250 65.122833 L-12.741287 65.086334 L-13.863419 65.003906 L-14.985519 64.917053 L-16.115768 64.772919 L-17.245529 64.624924 L-18.378891 64.417725 L-19.511810 64.200439 L-20.641556 63.916706 L-21.769379 63.611729 L-22.888077 63.256031 L-24.001358 62.873455 L-25.097931 62.440281 L-26.181030 61.967335 L-27.246628 61.459713 L-28.291702 60.912174 L-29.316681 60.336681 L-30.306091 59.713467 L-31.281143 59.075115 L-32.215561 58.398121 L-33.140869 57.713062 L-34.015915 56.992794 L-34.888504 56.269688 L-35.707199 55.520329 L-36.524261 54.769169 L-37.301422 54.004604 L-38.072723 53.237461 L-38.810501 52.464397 L-39.538315 51.689327 L-40.247070 50.913898 L-40.946106 50.138264 L-41.630722 49.365452 L-42.303696 48.595043 L-42.970306 47.828045 L-43.628769 47.065479 L-44.283875 46.307079 L-44.931900 45.557384 L-45.579178 44.810528 L-46.223633 44.074291 L-46.868088 43.339581 L-47.513397 42.619358 L-48.158524 41.898991 L-48.809052 41.197521 L-49.459396 40.496098 L-50.116760 39.810665 L-50.774841 39.127300 L-51.440964 38.458824 L-52.109283 37.794792 L-52.787186 37.146320 L-53.470093 36.506134 L-54.160553 35.877342 L-54.857574 35.258472 L-55.560883 34.648735 L-56.273163 34.051945 L-56.990082 33.461773 L-57.718445 32.887699 L-58.449539 32.317551 L-59.194458 31.766689 L-59.940155 31.216938 L-60.701828 30.689659 L-61.462891 30.161484 L-62.240936 29.657528 L-63.019058 29.153606 L-63.811523 28.670658 L-64.606049 28.190643 L-65.412148 27.728004 L-66.222031 27.270981 L-67.041214 26.828350 L-67.865807 26.394058 L-68.697960 25.971931 L-69.537323 25.561424 L-70.381882 25.159622 L-71.234520 24.771404 L-72.090485 24.388996 L-72.955353 24.022289 L-73.821953 23.658657 L-74.697998 23.312523 L-75.574425 22.966980 L-76.460632 22.640392 L-77.346619 22.313225 L-78.241463 22.003990 L-79.136642 21.695297 L-80.038986 21.401711 L-80.942650 21.110790 L-81.853851 20.836884 L-82.767937 20.569393 L-83.685989 20.311481 L-84.606606 20.059700 L-85.530098 19.814991 L-86.456520 19.577614 L-87.385315 19.346321 L-88.318031 19.125248 L-89.252548 18.909187 L-90.192200 18.707596 L-91.132370 18.507519 L-92.075829 18.317245 L-93.019402 18.127235 L-93.967255 17.950390 L-94.915062 17.773293 L-95.867935 17.613235 L-96.821198 17.454338 L-97.776382 17.302296 L-98.731987 17.151669 L-99.690582 17.012032 L-100.650436 16.877018 L-101.612015 16.748955 L-102.574783 16.625763 L-103.538513 16.506397 L-104.503304 16.391327 L-105.469437 16.282291 L-106.437965 16.184151 L-107.406685 16.086864 L-108.376038 15.992516 L-109.345840 15.900394 L-110.318634 15.823589 L-111.291435 15.746746 L-112.264877 15.673561 L-113.238312 15.600262 L-114.214012 15.540104 L-115.189934 15.481213 L-116.166428 15.426056 L-117.143066 15.371799 L-118.121010 15.326237 L-119.099579 15.284721 L-120.078453 15.245640 L-121.057579 15.208393 L-122.037430 15.176785 L-123.018166 15.151997 L-123.998993 15.128082 L-124.980011 15.105938 L-125.961349 15.086796 L-126.943771 15.078083 L-127.926193 15.069309 L-128.908600 15.060478 L-130.861267 14.955513 L-131.799240 14.670982 L-132.663666 14.208935 L-133.421356 13.587120 L-134.043167 12.829437 L-134.505219 11.965000 L-134.789749 11.027035 L-134.885818 10.051586 L-134.789749 9.076130 L-134.505219 8.138165 L-134.043167 7.273735 L-133.421356 6.516050 L-132.663666 5.894236 L-131.799240 5.432186 L-130.861267 5.147657 L-128.863113 5.060581 L-127.845604 5.069635 L-126.828094 5.078754 Z"/>
  <path style="fill:#ff0000;stroke:none" d=" M-40.292160 26.994915 L-40.388245 27.970356 L-40.388245 42.970364 L-55.388245 42.970364 L-56.363693 43.066441 L-57.301651 43.350971 L-58.166092 43.813023 L-58.923782 44.434841 L-59.545593 45.192524 L-60.007645 46.056957 L-60.292160 46.994923 L-60.388229 47.970371 L-60.292160 48.945827 L-60.007645 49.883793 L-59.545578 50.748226 L-58.923767 51.505909 L-58.166077 52.127720 L-57.301651 52.589771 L-56.363678 52.874302 L-55.388245 52.970371 L-30.326462 52.970371 L-30.388245 27.970356 L-30.484314 26.994904 L-30.768845 26.056942 L-31.230896 25.192505 L-31.852707 24.434826 L-32.610382 23.813011 L-33.474823 23.350960 L-34.412796 23.066433 L-35.388229 22.970364 L-36.363693 23.066437 L-37.301666 23.350964 L-38.166092 23.813015 L-38.923782 24.434830 L-39.545593 25.192516 L-40.007629 26.056953 Z"/>
</svg>
