<svg
  xmlns:svg="http://www.w3.org/2000/svg"
  xmlns="http://www.w3.org/2000/svg"
  width="200"
  height="100"
  viewBox="-200 0 200 100"
>
  <path style="fill:#ff0000;stroke:none" d=" M-10.981373 15.024088 L-10.000019 14.999998 L-9.024570 14.903925 L-8.086601 14.619394 L-7.222164 14.157343 L-6.464481 13.535528 L-5.842674 12.777845 L-5.380619 11.913412 L-5.096096 10.975447 L-5.000019 9.999994 L-5.096096 9.024538 L-5.380623 8.086576 L-5.842674 7.222139 L-6.464493 6.464457 L-7.222176 5.842646 L-8.086609 5.380596 L-9.024570 5.096066 L-10.000019 4.999998 L-11.472057 5.036133 L-12.940536 5.144451 L-14.401939 5.324699 L-15.852730 5.576439 L-17.289421 5.899059 L-18.708565 6.291784 L-20.106712 6.753674 L-21.480522 7.283613 L-22.826668 7.880316 L-24.141922 8.542356 L-25.423103 9.268141 L-26.667130 10.055906 L-27.871002 10.903772 L-29.031822 11.809687 L-30.146797 12.771463 L-31.213226 13.786795 L-32.228561 14.853228 L-33.190331 15.968199 L-34.096245 17.129019 L-34.944107 18.332888 L-35.731888 19.576914 L-36.457664 20.858095 L-37.119705 22.173346 L-37.716408 23.519495 L-38.246346 24.893305 L-38.708229 26.291456 L-39.100960 27.710596 L-39.423584 29.147295 L-39.675316 30.598082 L-39.855560 32.059486 L-39.963890 33.527969 L-40.000023 35.000008 L-39.963890 36.472031 L-39.855568 37.940514 L-39.675316 39.401917 L-39.423576 40.852707 L-39.100960 42.289406 L-38.708229 43.708542 L-38.246346 45.106697 L-37.716408 46.480499 L-37.119705 47.826645 L-36.457657 49.141899 L-35.731880 50.423080 L-34.944107 51.667107 L-34.096245 52.870979 L-33.190331 54.031792 L-32.228561 55.146774 L-31.213226 56.213203 L-30.146790 57.228539 L-29.031815 58.190308 L-27.871002 59.096230 L-26.667130 59.944084 L-25.423103 60.731857 L-24.141922 61.457634 L-22.826675 62.119675 L-21.480515 62.716385 L-20.106712 63.246323 L-18.708565 63.708206 L-17.289421 64.100937 L-15.852730 64.423561 L-14.401932 64.675293 L-12.940533 64.855545 L-11.472046 64.963867 L-10.000015 65.000000 L-9.024567 64.903923 L-8.086597 64.619400 L-7.222164 64.157341 L-6.464481 63.535530 L-5.842674 62.777847 L-5.380619 61.913414 L-5.096096 60.975441 L-5.000019 59.999992 L-5.096088 59.024544 L-5.380623 58.086571 L-5.842674 57.222137 L-6.464493 56.464455 L-7.222176 55.842651 L-8.086609 55.380592 L-9.024578 55.096069 L-10.000019 55.000000 L-10.981369 54.975906 L-11.960361 54.903702 L-12.934624 54.783539 L-13.901829 54.615707 L-14.859619 54.400620 L-15.805717 54.138802 L-16.737816 53.830879 L-17.653694 53.477592 L-18.551125 53.079781 L-19.427956 52.638420 L-20.282074 52.154572 L-21.111427 51.629395 L-21.914001 51.064148 L-22.687889 50.460205 L-23.431198 49.819023 L-24.142159 49.142136 L-24.819046 48.431183 L-25.460228 47.687866 L-26.064171 46.913986 L-26.629410 46.111404 L-27.154594 45.282051 L-27.638443 44.427940 L-28.079803 43.551102 L-28.477615 42.653671 L-28.830902 41.737793 L-29.138824 40.805695 L-29.400642 39.859604 L-29.615730 38.901810 L-29.783554 37.934608 L-29.903717 36.960342 L-29.975929 35.981354 L-30.000023 35.000000 L-29.975929 34.018646 L-29.903717 33.039658 L-29.783554 32.065384 L-29.615730 31.098196 L-29.400642 30.140394 L-29.138832 29.194307 L-28.830902 28.262201 L-28.477615 27.346327 L-28.079803 26.448896 L-27.638443 25.572062 L-27.154594 24.717943 L-26.629417 23.888594 L-26.064171 23.086012 L-25.460228 22.312132 L-24.819046 21.568819 L-24.142159 20.857859 L-23.431206 20.180975 L-22.687889 19.539789 L-21.914001 18.935846 L-21.111427 18.370607 L-20.282074 17.845423 L-19.427956 17.361570 L-18.551125 16.920210 L-17.653694 16.522406 L-16.737816 16.169115 L-15.805717 15.861193 L-14.859627 15.599367 L-13.901829 15.384291 L-12.934631 15.216467 L-11.960361 15.096304 Z"/>
  <path style="fill:#ff0000;stroke:none" d=" M-23.145142 24.466146 L-23.902824 25.087950 L-34.509430 35.694550 L-45.116028 25.087954 L-45.873711 24.466143 L-46.738144 24.004099 L-47.676125 23.719568 L-48.651573 23.623503 L-49.627014 23.719564 L-50.564980 24.004091 L-51.429413 24.466143 L-52.187111 25.087965 L-52.808914 25.845644 L-53.270958 26.710070 L-53.555489 27.648046 L-53.651558 28.623507 L-53.555489 29.598955 L-53.270958 30.536917 L-52.808907 31.401350 L-52.187111 32.159035 L-34.465752 49.880379 L-16.831757 32.159019 L-16.209938 31.401342 L-15.747894 30.536909 L-15.463371 29.598940 L-15.367279 28.623487 L-15.463348 27.648035 L-15.747879 26.710058 L-16.209938 25.845625 L-16.831757 25.087954 L-17.589447 24.466146 L-18.453880 24.004091 L-19.391830 23.719553 L-20.367287 23.623480 L-21.342743 23.719568 L-22.280701 24.004099 Z"/>
</svg>
