<svg
  xmlns:svg="http://www.w3.org/2000/svg"
  xmlns="http://www.w3.org/2000/svg"
  width="200"
  height="100"
  viewBox="-200 0 200 100"
>
  <path d=" M-74.189453 5.087923 L-73.171944 5.078743 L-72.154434 5.069624 L-71.136932 5.060570 L-69.138763 5.147646 L-68.200806 5.432175 L-67.336365 5.894224 L-66.578690 6.516039 L-65.956879 7.273724 L-65.494827 8.138153 L-65.210297 9.076118 L-65.114220 10.051575 L-65.210297 11.027023 L-65.494827 11.964989 L-65.956879 12.829426 L-66.578690 13.587109 L-67.336365 14.208923 L-68.200806 14.670971 L-69.138771 14.955502 L-71.091438 15.060467 L-72.073853 15.069298 L-73.056274 15.078072 L-74.038696 15.086784 L-75.020035 15.105927 L-76.001053 15.128071 L-76.981873 15.151985 L-77.962616 15.176773 L-78.942459 15.208382 L-79.921585 15.245628 L-80.900467 15.284710 L-81.879028 15.326225 L-82.856979 15.371788 L-83.833618 15.426044 L-84.810104 15.481201 L-85.786026 15.540092 L-86.761734 15.600250 L-87.735168 15.673550 L-88.708603 15.746735 L-89.681412 15.823578 L-90.654205 15.900383 L-91.624008 15.992504 L-92.593353 16.086853 L-93.562073 16.184139 L-94.530609 16.282280 L-95.496735 16.391315 L-96.461533 16.506386 L-97.425262 16.625751 L-98.388031 16.748943 L-99.349609 16.877007 L-100.309464 17.012020 L-101.268051 17.151657 L-102.223663 17.302284 L-103.178848 17.454327 L-104.132111 17.613224 L-105.084976 17.773281 L-106.032791 17.950378 L-106.980637 18.127224 L-107.924210 18.317234 L-108.867676 18.507507 L-109.807846 18.707584 L-110.747498 18.909176 L-111.682007 19.125237 L-112.614731 19.346310 L-113.543518 19.577602 L-114.469940 19.814980 L-115.393433 20.059689 L-116.314056 20.311470 L-117.232101 20.569382 L-118.146194 20.836872 L-119.057388 21.110779 L-119.961060 21.401699 L-120.863403 21.695286 L-121.758575 22.003979 L-122.653427 22.313213 L-123.539413 22.640381 L-124.425613 22.966969 L-125.302048 23.312511 L-126.178085 23.658646 L-127.044693 24.022278 L-127.909561 24.388985 L-128.765518 24.771393 L-129.618164 25.159611 L-130.462723 25.561413 L-131.302078 25.971920 L-132.134232 26.394047 L-132.958832 26.828339 L-133.778015 27.270969 L-134.587891 27.727993 L-135.393997 28.190632 L-136.188522 28.670647 L-136.980988 29.153595 L-137.759109 29.657516 L-138.537155 30.161472 L-139.298218 30.689648 L-140.059891 31.216927 L-140.805588 31.766678 L-141.550507 32.317539 L-142.281601 32.887688 L-143.009964 33.461761 L-143.726883 34.051933 L-144.439163 34.648724 L-145.142471 35.258461 L-145.839493 35.877331 L-146.529953 36.506123 L-147.212860 37.146309 L-147.890762 37.794781 L-148.559082 38.458813 L-149.225204 39.127289 L-149.883286 39.810654 L-150.540649 40.496086 L-151.190994 41.197510 L-151.841522 41.898979 L-152.486649 42.619347 L-153.131958 43.339569 L-153.776413 44.074280 L-154.420868 44.810516 L-155.068146 45.557373 L-155.716171 46.307068 L-156.371277 47.065468 L-157.029739 47.828033 L-157.696350 48.595032 L-158.369324 49.365440 L-159.053940 50.138252 L-159.752975 50.913887 L-160.461731 51.689316 L-161.189545 52.464386 L-161.927322 53.237450 L-162.698624 54.004593 L-163.475784 54.769157 L-164.292847 55.520317 L-165.111542 56.269676 L-165.984131 56.992783 L-166.859177 57.713051 L-167.784485 58.398109 L-168.718903 59.075104 L-169.693954 59.713455 L-170.683365 60.336670 L-171.708344 60.912163 L-172.753418 61.459702 L-173.819016 61.967323 L-174.902115 62.440269 L-175.998688 62.873444 L-177.111969 63.256020 L-178.230667 63.611717 L-179.358490 63.916695 L-180.488235 64.200432 L-181.621155 64.417717 L-182.754517 64.624908 L-183.884277 64.772911 L-185.014526 64.917046 L-186.136627 65.003891 L-187.258759 65.086327 L-188.371796 65.122818 L-190.486847 65.054008 L-191.424820 64.769478 L-192.289246 64.307426 L-193.046936 63.685616 L-193.668747 62.927933 L-194.130798 62.063499 L-194.415329 61.125534 L-194.511398 60.150078 L-194.415329 59.174622 L-194.130798 58.236664 L-193.668732 57.372223 L-193.046936 56.614540 L-192.289246 55.992729 L-191.424805 55.530678 L-190.486847 55.246155 L-188.651871 55.126740 L-187.766418 55.099220 L-186.894516 55.032654 L-186.022827 54.968010 L-185.170120 54.855927 L-184.316895 54.747711 L-183.484100 54.592781 L-182.652527 54.437454 L-181.844864 54.230713 L-181.042145 54.015068 L-180.256927 53.763428 L-179.478592 53.498459 L-178.717575 53.196777 L-177.968781 52.869003 L-177.230286 52.517784 L-176.504364 52.137306 L-175.786118 51.736565 L-175.085403 51.291328 L-174.387039 50.836655 L-173.703979 50.338371 L-173.020615 49.836716 L-172.353683 49.283768 L-171.684525 48.733376 L-171.030090 48.130478 L-170.374008 47.529373 L-169.726562 46.890640 L-169.079254 46.248184 L-168.436920 45.574142 L-167.795715 44.891342 L-167.155396 44.190483 L-166.515472 43.480499 L-165.873947 42.756317 L-165.231232 42.020424 L-164.585892 41.277870 L-163.937256 40.526665 L-163.284973 39.771530 L-162.625107 39.008163 L-161.962509 38.243664 L-161.289673 37.474960 L-160.615204 36.706245 L-159.925995 35.936817 L-159.236633 35.167534 L-158.527542 34.402283 L-157.817856 33.637348 L-157.091202 32.879147 L-156.361710 32.122261 L-155.616333 31.373962 L-154.865570 30.628750 L-154.098633 29.894680 L-153.322464 29.167076 L-152.534561 28.449280 L-151.736176 27.740276 L-150.928467 27.040237 L-150.108002 26.352486 L-149.280701 25.672176 L-148.438690 25.007946 L-147.592346 24.349098 L-146.729691 23.710320 L-145.864960 23.074368 L-144.982834 22.462543 L-144.100067 21.851601 L-143.200150 21.267345 L-142.299042 20.684929 L-141.384262 20.126385 L-140.466660 19.572739 L-139.538574 19.039448 L-138.606476 18.513920 L-137.666351 18.005688 L-136.721283 17.508152 L-135.770004 17.025536 L-134.812836 16.557159 L-133.851517 16.099888 L-132.884186 15.658951 L-131.914200 15.225864 L-130.938095 14.811337 L-129.960510 14.401577 L-128.976883 14.012222 L-127.992676 13.624805 L-127.002670 13.259239 L-126.012451 12.894249 L-125.017303 12.549835 L-124.021667 12.207119 L-123.022278 11.881775 L-122.021988 11.560322 L-121.018097 11.258141 L-120.012726 10.963745 L-119.005569 10.680492 L-117.997208 10.404621 L-116.987595 10.137096 L-115.976730 9.878147 L-114.964890 9.626396 L-113.951523 9.386181 L-112.937515 9.151936 L-111.921799 8.933582 L-110.905869 8.717430 L-109.888962 8.512142 L-108.871948 8.307701 L-107.853760 8.117573 L-106.835526 7.927692 L-105.816193 7.756046 L-104.796722 7.586071 L-103.776886 7.423645 L-102.756927 7.263115 L-101.736511 7.114368 L-100.715866 6.970779 L-99.695053 6.834723 L-98.674103 6.704037 L-97.653061 6.577625 L-96.631927 6.455957 L-95.610733 6.340786 L-94.589523 6.237059 L-93.568283 6.134495 L-92.547073 6.035198 L-91.525864 5.938446 L-90.504883 5.857544 L-89.483902 5.776833 L-88.463028 5.700075 L-87.442139 5.623426 L-86.421661 5.560314 L-85.401215 5.498688 L-84.380936 5.441032 L-83.360718 5.384485 L-82.340881 5.336895 L-81.321243 5.293571 L-80.301743 5.252857 L-79.282349 5.214163 L-78.263321 5.181293 L-77.244690 5.155439 L-76.226120 5.130606 L-75.207687 5.107687 Z"/>
  <path d=" M-159.707886 26.994904 L-159.992416 26.056942 L-160.454453 25.192505 L-161.076263 24.434818 L-161.833954 23.813004 L-162.698380 23.350952 L-163.636353 23.066425 L-164.611816 22.970352 L-165.587250 23.066422 L-166.525223 23.350948 L-167.389664 23.813000 L-168.147339 24.434814 L-168.769150 25.192493 L-169.231201 26.056931 L-169.515732 26.994892 L-169.611801 27.970345 L-169.673584 52.970360 L-144.611801 52.970360 L-143.636368 52.874290 L-142.698395 52.589760 L-141.833969 52.127708 L-141.076279 51.505898 L-140.454468 50.748215 L-139.992401 49.883781 L-139.707886 48.945816 L-139.611816 47.970360 L-139.707886 46.994911 L-139.992401 46.056946 L-140.454453 45.192513 L-141.076263 44.434830 L-141.833954 43.813011 L-142.698395 43.350960 L-143.636353 43.066429 L-144.611801 42.970352 L-159.611801 42.970352 L-159.611801 27.970345 Z"/>
</svg>
