<svg
  xmlns:svg="http://www.w3.org/2000/svg"
  xmlns="http://www.w3.org/2000/svg"
  width="200"
  height="100"
  viewBox="-200 0 200 100"
>
  <path d=" M-189.018646 15.024086 L-188.039658 15.096302 L-187.065399 15.216465 L-186.098190 15.384289 L-185.140396 15.599365 L-184.194305 15.861191 L-183.262207 16.169113 L-182.346329 16.522404 L-181.448898 16.920208 L-180.572067 17.361568 L-179.717957 17.845421 L-178.888596 18.370605 L-178.086029 18.935844 L-177.312134 19.539787 L-176.568817 20.180973 L-175.857864 20.857857 L-175.180969 21.568817 L-174.539795 22.312130 L-173.935852 23.086010 L-173.370605 23.888592 L-172.845428 24.717941 L-172.361572 25.572060 L-171.920227 26.448895 L-171.522400 27.346325 L-171.169128 28.262199 L-170.861191 29.194305 L-170.599380 30.140392 L-170.384293 31.098194 L-170.216461 32.065384 L-170.096313 33.039654 L-170.024094 34.018642 L-170.000000 34.999996 L-170.024094 35.981350 L-170.096313 36.960339 L-170.216461 37.934608 L-170.384293 38.901806 L-170.599380 39.859604 L-170.861206 40.805695 L-171.169128 41.737793 L-171.522400 42.653671 L-171.920227 43.551102 L-172.361572 44.427940 L-172.845428 45.282051 L-173.370605 46.111404 L-173.935852 46.913986 L-174.539795 47.687866 L-175.180969 48.431183 L-175.857864 49.142136 L-176.568817 49.819023 L-177.312134 50.460205 L-178.086029 51.064148 L-178.888596 51.629395 L-179.717957 52.154572 L-180.572067 52.638420 L-181.448898 53.079781 L-182.346329 53.477592 L-183.262207 53.830879 L-184.194305 54.138802 L-185.140411 54.400620 L-186.098190 54.615707 L-187.065399 54.783539 L-188.039658 54.903702 L-189.018646 54.975906 L-190.000000 55.000000 L-190.975449 55.096069 L-191.913422 55.380592 L-192.777847 55.842651 L-193.535522 56.464455 L-194.157349 57.222137 L-194.619400 58.086571 L-194.903931 59.024544 L-195.000000 59.999992 L-194.903931 60.975441 L-194.619400 61.913414 L-194.157349 62.777847 L-193.535538 63.535530 L-192.777863 64.157341 L-191.913422 64.619400 L-190.975464 64.903923 L-190.000000 65.000000 L-188.527985 64.963867 L-187.059494 64.855545 L-185.598083 64.675293 L-184.147293 64.423561 L-182.710602 64.100937 L-181.291458 63.708206 L-179.893311 63.246323 L-178.519501 62.716385 L-177.173340 62.119675 L-175.858093 61.457634 L-174.576920 60.731857 L-173.332886 59.944084 L-172.129028 59.096230 L-170.968201 58.190308 L-169.853241 57.228539 L-168.786804 56.213203 L-167.771454 55.146774 L-166.809692 54.031792 L-165.903778 52.870979 L-165.055908 51.667107 L-164.268143 50.423080 L-163.542358 49.141899 L-162.880310 47.826645 L-162.283615 46.480499 L-161.753677 45.106697 L-161.291794 43.708542 L-160.899063 42.289406 L-160.576447 40.852707 L-160.324707 39.401917 L-160.144455 37.940514 L-160.036133 36.472027 L-160.000000 35.000004 L-160.036133 33.527969 L-160.144470 32.059486 L-160.324707 30.598080 L-160.576447 29.147293 L-160.899063 27.710594 L-161.291794 26.291454 L-161.753677 24.893303 L-162.283615 23.519493 L-162.880310 22.173344 L-163.542358 20.858093 L-164.268127 19.576912 L-165.055908 18.332886 L-165.903778 17.129017 L-166.809692 15.968197 L-167.771454 14.853226 L-168.786804 13.786793 L-169.853226 12.771461 L-170.968201 11.809685 L-172.129028 10.903770 L-173.332886 10.055904 L-174.576920 9.268139 L-175.858093 8.542355 L-177.173355 7.880314 L-178.519501 7.283611 L-179.893311 6.753672 L-181.291458 6.291782 L-182.710602 5.899057 L-184.147293 5.576437 L-185.598083 5.324697 L-187.059479 5.144449 L-188.527969 5.036131 L-190.000000 4.999996 L-190.975449 5.096064 L-191.913422 5.380594 L-192.777847 5.842644 L-193.535522 6.464455 L-194.157349 7.222137 L-194.619400 8.086575 L-194.903931 9.024536 L-195.000000 9.999992 L-194.903931 10.975445 L-194.619400 11.913410 L-194.157349 12.777843 L-193.535538 13.535526 L-192.777863 14.157341 L-191.913422 14.619392 L-190.975449 14.903923 L-190.000000 14.999996 Z"/>
  <path d=" M-176.854889 24.466145 L-177.719330 24.004097 L-178.657288 23.719566 L-179.632736 23.623478 L-180.608185 23.719551 L-181.546143 24.004089 L-182.410583 24.466145 L-183.168274 25.087952 L-183.790085 25.845623 L-184.252136 26.710056 L-184.536682 27.648033 L-184.632751 28.623486 L-184.536652 29.598938 L-184.252136 30.536907 L-183.790085 31.401340 L-183.168274 32.159019 L-165.534271 49.880379 L-147.812912 32.159031 L-147.191116 31.401348 L-146.729065 30.536915 L-146.444534 29.598953 L-146.348465 28.623505 L-146.444534 27.648045 L-146.729065 26.710068 L-147.191101 25.845642 L-147.812912 25.087963 L-148.570618 24.466141 L-149.435043 24.004089 L-150.373016 23.719563 L-151.348450 23.623501 L-152.323898 23.719566 L-153.261871 24.004097 L-154.126312 24.466141 L-154.884003 25.087952 L-165.490601 35.694550 L-176.097198 25.087948 Z"/>
</svg>
