<svg
  class="graphics graphics-r-l-under"
  xmlns:svg="http://www.w3.org/2000/svg"
  xmlns="http://www.w3.org/2000/svg"
  width="200"
  height="100"
  viewBox="-200 0 200 100"
>
  <path d=" M-143.651474 43.062996 L-144.626923 42.966911 L-159.626923 42.966911 L-159.626923 27.966917 L-159.722992 26.991465 L-160.007538 26.053499 L-160.469589 25.189066 L-161.091400 24.431383 L-161.849075 23.809565 L-162.713501 23.347517 L-163.651474 23.062990 L-164.626938 22.966917 L-165.602386 23.062990 L-166.540344 23.347517 L-167.404785 23.809576 L-168.162476 24.431395 L-168.784271 25.189077 L-169.246323 26.053511 L-169.530853 26.991476 L-169.626923 27.966917 L-169.626923 53.028687 L-144.626923 52.966911 L-143.651474 52.870842 L-142.713501 52.586319 L-141.849075 52.124260 L-141.091385 51.502449 L-140.469574 50.744774 L-140.007507 49.880333 L-139.722977 48.942360 L-139.626923 47.966919 L-139.722992 46.991463 L-140.007538 46.053490 L-140.469574 45.189056 L-141.091385 44.431374 L-141.849075 43.809570 L-142.713501 43.347527 Z"/>
  <path d=" M-132.958801 26.828337 L-133.777985 27.270967 L-134.587860 27.727991 L-135.393951 28.190630 L-136.188477 28.670645 L-136.980957 29.153593 L-137.759064 29.657515 L-138.537109 30.161470 L-139.298187 30.689646 L-140.059845 31.216925 L-140.805542 31.766676 L-141.550476 32.317535 L-142.281570 32.887680 L-143.009918 33.461761 L-143.726852 34.051933 L-144.439117 34.648720 L-145.142426 35.258461 L-145.839447 35.877327 L-146.529907 36.506119 L-147.212814 37.146309 L-147.890717 37.794777 L-148.559052 38.458809 L-149.225159 39.127281 L-149.883240 39.810646 L-150.540619 40.496078 L-151.190964 41.197510 L-151.841492 41.898979 L-152.486618 42.619347 L-153.131897 43.339569 L-153.776367 44.074280 L-154.420822 44.810516 L-155.068100 45.557373 L-155.716141 46.307068 L-156.371246 47.065468 L-157.029709 47.828026 L-157.696304 48.595024 L-158.369263 49.365433 L-159.053894 50.138237 L-159.752945 50.913887 L-160.461685 51.689316 L-161.189499 52.464378 L-161.927277 53.237450 L-162.698578 54.004593 L-163.475739 54.769157 L-164.292816 55.520309 L-165.111511 56.269676 L-165.984100 56.992783 L-166.859131 57.713051 L-167.784424 58.398109 L-168.718872 59.075104 L-169.693909 59.713448 L-170.683319 60.336662 L-171.708298 60.912155 L-172.753387 61.459694 L-173.818970 61.967316 L-174.902084 62.440269 L-175.998642 62.873436 L-177.111938 63.256012 L-178.230621 63.611710 L-179.358444 63.916679 L-180.488190 64.200432 L-181.621109 64.417709 L-182.754486 64.624901 L-183.884247 64.772911 L-185.014496 64.917046 L-186.136597 65.003891 L-187.258728 65.086319 L-188.371750 65.122818 L-189.483383 65.149994 L-190.486816 65.054001 L-191.424774 64.769478 L-192.289215 64.307426 L-193.046890 63.685616 L-193.668716 62.927933 L-194.130753 62.063499 L-194.415283 61.125534 L-194.511353 60.150078 L-194.415283 59.174629 L-194.130753 58.236664 L-193.668716 57.372231 L-193.046890 56.614548 L-192.289215 55.992729 L-191.424774 55.530678 L-190.486816 55.246147 L-189.539337 55.150154 L-188.651825 55.126740 L-187.766388 55.099220 L-186.894470 55.032654 L-186.022781 54.968002 L-185.170074 54.855927 L-184.316864 54.747711 L-183.484070 54.592781 L-182.652496 54.437454 L-181.844818 54.230713 L-181.042114 54.015053 L-180.256897 53.763420 L-179.478546 53.498451 L-178.717545 53.196770 L-177.968750 52.869003 L-177.230240 52.517784 L-176.504333 52.137299 L-175.786072 51.736565 L-175.085358 51.291328 L-174.386993 50.836647 L-173.703949 50.338371 L-173.020569 49.836708 L-172.353638 49.283768 L-171.684479 48.733368 L-171.030045 48.130478 L-170.373962 47.529366 L-169.726501 46.890640 L-169.079208 46.248177 L-168.436890 45.574142 L-167.795685 44.891335 L-167.155365 44.190475 L-166.515442 43.480499 L-165.873901 42.756310 L-165.231201 42.020424 L-164.585846 41.277863 L-163.937225 40.526665 L-163.284943 39.771523 L-162.625061 39.008156 L-161.962463 38.243660 L-161.289642 37.474960 L-160.615173 36.706245 L-159.925964 35.936813 L-159.236603 35.167534 L-158.527496 34.402283 L-157.817810 33.637337 L-157.091156 32.879143 L-156.361664 32.122261 L-155.616302 31.373960 L-154.865540 30.628748 L-154.098602 29.894678 L-153.322418 29.167074 L-152.534515 28.449278 L-151.736145 27.740274 L-150.928436 27.040239 L-150.107956 26.352484 L-149.280670 25.672174 L-148.438660 25.007944 L-147.592316 24.349096 L-146.729645 23.710314 L-145.864914 23.074366 L-144.982788 22.462542 L-144.100037 21.851599 L-144.047455 21.817461 L-143.198242 22.055983 L-142.569336 22.240004 L-142.298309 22.319311 L-141.401443 22.588839 L-141.027863 22.709143 L-140.512726 22.875036 L-139.625397 23.163706 L-139.513840 23.202192 L-138.745773 23.467134 L-138.028412 23.714968 L-137.866455 23.770922 L-136.996613 24.092237 L-136.569931 24.249422 L-136.126465 24.412794 L-135.266724 24.751860 L-135.139175 24.802237 L-134.407318 25.091311 L-133.735107 25.373423 L-133.557907 25.447794 L-132.710251 25.807100 L-132.355331 25.965685 L-131.871918 26.181669 L-131.789520 26.219191 L-132.134201 26.394041 Z"/>
  <path d=" M-71.136887 5.060568 L-70.119385 5.051575 L-69.138748 5.147646 L-68.200775 5.432171 L-67.336334 5.894220 L-66.578644 6.516033 L-65.956848 7.273714 L-65.494781 8.138151 L-65.210266 9.076117 L-65.114182 10.051565 L-65.210266 11.027021 L-65.494781 11.964987 L-65.956833 12.829420 L-66.578644 13.587107 L-67.336334 14.208918 L-68.200760 14.670969 L-69.138733 14.955496 L-70.108978 15.051569 L-71.091400 15.060465 L-72.073822 15.069300 L-73.056229 15.078074 L-74.038666 15.086782 L-75.019989 15.105925 L-76.001007 15.128069 L-76.981842 15.151983 L-77.962570 15.176775 L-78.942429 15.208384 L-79.921555 15.245626 L-80.900436 15.284708 L-81.878998 15.326220 L-82.856934 15.371786 L-83.833572 15.426043 L-84.810059 15.481199 L-85.785995 15.540091 L-86.761688 15.600248 L-87.735123 15.673548 L-88.708572 15.746729 L-89.681366 15.823576 L-90.654175 15.900381 L-91.623978 15.992502 L-92.593323 16.086851 L-93.562042 16.184134 L-94.530563 16.282278 L-95.496704 16.391314 L-96.461487 16.506380 L-97.425217 16.625746 L-98.387985 16.748941 L-99.349564 16.877001 L-100.309418 17.012014 L-101.268021 17.151655 L-102.223618 17.302279 L-103.178818 17.454325 L-104.132065 17.613222 L-105.084946 17.773279 L-106.032745 17.950373 L-106.980606 18.127222 L-107.924179 18.317228 L-108.867630 18.507509 L-109.807800 18.707582 L-110.747452 18.909174 L-111.681976 19.125235 L-112.614685 19.346308 L-113.543488 19.577600 L-114.469910 19.814974 L-115.393402 20.059687 L-115.692108 20.141386 L-115.957794 19.968843 L-116.509369 19.612436 L-116.877930 19.374289 L-117.728378 18.854902 L-117.811661 18.804045 L-118.748306 18.238997 L-118.961853 18.116270 L-119.695251 17.694773 L-120.207336 17.406088 L-120.646286 17.158644 L-121.468323 16.714205 L-121.605103 16.640257 L-122.568832 16.132940 L-122.744545 16.043787 L-123.538551 15.640955 L-124.035645 15.397699 L-124.513962 15.163626 L-125.343895 14.768854 L-125.493332 14.697767 L-126.478424 14.248671 L-126.668739 14.163710 L-127.466049 13.807741 L-127.941338 13.605856 L-127.002647 13.259233 L-126.012421 12.894243 L-125.017258 12.549833 L-124.021652 12.207117 L-123.022247 11.881769 L-122.021950 11.560320 L-121.018066 11.258135 L-120.012695 10.963743 L-119.005539 10.680487 L-117.997162 10.404615 L-116.987579 10.137091 L-115.976685 9.878145 L-114.964874 9.626390 L-113.951492 9.386175 L-112.937469 9.151930 L-111.921768 8.933580 L-110.905838 8.717424 L-109.888916 8.512140 L-108.871918 8.307699 L-107.853729 8.117571 L-106.835480 7.927691 L-105.816147 7.756044 L-104.796677 7.586069 L-103.776855 7.423639 L-102.756897 7.263117 L-101.736481 7.114363 L-100.715820 6.970776 L-99.695007 6.834723 L-98.674072 6.704033 L-97.653030 6.577623 L-96.631882 6.455956 L-95.610703 6.340784 L-94.589478 6.237055 L-93.568253 6.134493 L-92.547028 6.035196 L-91.525833 5.938444 L-90.504852 5.857540 L-89.483856 5.776833 L-88.462982 5.700069 L-87.442093 5.623425 L-86.421616 5.560308 L-85.401184 5.498686 L-84.380920 5.441031 L-83.360672 5.384481 L-82.340851 5.336893 L-81.321198 5.293566 L-80.301697 5.252855 L-79.282318 5.214161 L-78.263275 5.181292 L-77.244644 5.155439 L-76.226074 5.130602 L-75.207642 5.107687 L-74.189407 5.087921 L-73.171906 5.078743 L-72.154404 5.069622 Z"/>
</svg>
